<mxfile host="drawio-plugin" modified="2022-03-28T12:29:28.153Z" agent="5.0 (Windows NT 6.2; Win64; x64) AppleWebKit/537.36 (KHTML, like Gecko) Chrome/89.0.4389.114 Safari/537.36" etag="popG-NE-BMviX7v5U1X_" version="15.5.4" type="embed"><diagram id="23iRSUPoRavnBvh4doch" name="Page-1"><mxGraphModel dx="384" dy="391" grid="0" gridSize="10" guides="1" tooltips="1" connect="1" arrows="1" fold="1" page="1" pageScale="1" pageWidth="827" pageHeight="1169" math="0" shadow="0"><root><mxCell id="0"/><mxCell id="1" parent="0"/><mxCell id="2" value="Student" style="swimlane;fontStyle=1;align=center;verticalAlign=top;childLayout=stackLayout;horizontal=1;startSize=26;horizontalStack=0;resizeParent=1;resizeParentMax=0;resizeLast=0;collapsible=1;marginBottom=0;fillColor=#09555B;strokeColor=#BAC8D3;fontColor=#EEEEEE;" vertex="1" parent="1"><mxGeometry x="240" y="170" width="250" height="242" as="geometry"/></mxCell><mxCell id="3" value="- name: String" style="text;strokeColor=none;fillColor=none;align=left;verticalAlign=top;spacingLeft=4;spacingRight=4;overflow=hidden;rotatable=0;points=[[0,0.5],[1,0.5]];portConstraint=eastwest;fontColor=#EEEEEE;" vertex="1" parent="2"><mxGeometry y="26" width="250" height="26" as="geometry"/></mxCell><mxCell id="6" value="- secretNickName: String" style="text;strokeColor=none;fillColor=none;align=left;verticalAlign=top;spacingLeft=4;spacingRight=4;overflow=hidden;rotatable=0;points=[[0,0.5],[1,0.5]];portConstraint=eastwest;fontColor=#EEEEEE;" vertex="1" parent="2"><mxGeometry y="52" width="250" height="26" as="geometry"/></mxCell><mxCell id="7" value="- grade: Integer" style="text;strokeColor=none;fillColor=none;align=left;verticalAlign=top;spacingLeft=4;spacingRight=4;overflow=hidden;rotatable=0;points=[[0,0.5],[1,0.5]];portConstraint=eastwest;fontColor=#EEEEEE;" vertex="1" parent="2"><mxGeometry y="78" width="250" height="26" as="geometry"/></mxCell><mxCell id="8" value="- group: Integer" style="text;strokeColor=none;fillColor=none;align=left;verticalAlign=top;spacingLeft=4;spacingRight=4;overflow=hidden;rotatable=0;points=[[0,0.5],[1,0.5]];portConstraint=eastwest;fontColor=#EEEEEE;" vertex="1" parent="2"><mxGeometry y="104" width="250" height="26" as="geometry"/></mxCell><mxCell id="4" value="" style="line;strokeWidth=1;fillColor=none;align=left;verticalAlign=middle;spacingTop=-1;spacingLeft=3;spacingRight=3;rotatable=0;labelPosition=right;points=[];portConstraint=eastwest;strokeColor=#BAC8D3;fontColor=#EEEEEE;" vertex="1" parent="2"><mxGeometry y="130" width="250" height="8" as="geometry"/></mxCell><mxCell id="5" value="+ getName(): String" style="text;strokeColor=none;fillColor=none;align=left;verticalAlign=top;spacingLeft=4;spacingRight=4;overflow=hidden;rotatable=0;points=[[0,0.5],[1,0.5]];portConstraint=eastwest;fontColor=#EEEEEE;" vertex="1" parent="2"><mxGeometry y="138" width="250" height="26" as="geometry"/></mxCell><mxCell id="10" value="+ getGrade(): String" style="text;strokeColor=none;fillColor=none;align=left;verticalAlign=top;spacingLeft=4;spacingRight=4;overflow=hidden;rotatable=0;points=[[0,0.5],[1,0.5]];portConstraint=eastwest;fontColor=#EEEEEE;" vertex="1" parent="2"><mxGeometry y="164" width="250" height="26" as="geometry"/></mxCell><mxCell id="9" value="+ upgrade(): void" style="text;strokeColor=none;fillColor=none;align=left;verticalAlign=top;spacingLeft=4;spacingRight=4;overflow=hidden;rotatable=0;points=[[0,0.5],[1,0.5]];portConstraint=eastwest;fontColor=#EEEEEE;" vertex="1" parent="2"><mxGeometry y="190" width="250" height="26" as="geometry"/></mxCell><mxCell id="11" value="+ downgrade(): void" style="text;strokeColor=none;fillColor=none;align=left;verticalAlign=top;spacingLeft=4;spacingRight=4;overflow=hidden;rotatable=0;points=[[0,0.5],[1,0.5]];portConstraint=eastwest;fontColor=#EEEEEE;" vertex="1" parent="2"><mxGeometry y="216" width="250" height="26" as="geometry"/></mxCell></root></mxGraphModel></diagram></mxfile>